<?xml version="1.0" standalone="no"?>
<!DOCTYPE svg PUBLIC "-//W3C//DTD SVG 20010904//EN"
 "http://www.w3.org/TR/2001/REC-SVG-20010904/DTD/svg10.dtd">
<svg version="1.0" xmlns="http://www.w3.org/2000/svg"
 width="200.000000pt" height="200.000000pt" viewBox="0 0 200.000000 200.000000"
 preserveAspectRatio="xMidYMid meet">

<g transform="translate(0.000000,200.000000) scale(0.100000,-0.100000)"
fill="#000000" stroke="none">
<path d="M0 1000 l0 -1000 1000 0 1000 0 0 1000 0 1000 -1000 0 -1000 0 0
-1000z m1341 727 c19 -13 40 -39 48 -61 25 -66 7 -94 -193 -298 -99 -101 -189
-188 -200 -195 -12 -7 -41 -12 -66 -13 -37 0 -52 6 -77 29 -37 34 -48 66 -40
123 5 38 22 58 194 231 103 104 197 193 208 197 37 16 91 11 126 -13z m-568
-561 c18 -8 119 -101 225 -208 189 -191 192 -195 192 -237 0 -23 -6 -54 -14
-69 -8 -15 -97 -109 -198 -208 -137 -136 -191 -183 -215 -189 -102 -22 -189
76 -149 167 7 18 71 89 140 158 69 69 126 129 126 135 0 6 -59 69 -130 140
-151 150 -166 177 -134 246 13 31 29 47 59 60 49 22 57 23 98 5z"/>
</g>
</svg>
